<svg width="402" height="401" viewBox="0 0 402 401" fill="none" xmlns="http://www.w3.org/2000/svg">
<rect width="400" height="400" transform="translate(0 1)" fill="#101010"/>
<line x1="399.237" y1="400.5" x2="9.15527e-05" y2="400.5" stroke="#101010" stroke-dasharray="2 2"/>
<line x1="399.428" y1="300.5" x2="0.190918" y2="300.5" stroke="#101010" stroke-dasharray="2 2"/>
<line x1="399.619" y1="200.5" x2="0.381714" y2="200.5" stroke="#101010" stroke-dasharray="2 2"/>
<line x1="399.809" y1="100.5" x2="0.57251" y2="100.5" stroke="#101010" stroke-dasharray="2 2"/>
<line x1="400" y1="0.5" x2="0.763275" y2="0.5" stroke="#101010" stroke-dasharray="2 2"/>
<line x1="1.5" y1="399.237" x2="1.5" stroke="#101010" stroke-dasharray="2 2"/>
<line x1="101.5" y1="399.428" x2="101.5" y2="0.190796" stroke="#101010" stroke-dasharray="2 2"/>
<line x1="201.5" y1="399.618" x2="201.5" y2="0.381592" stroke="#101010" stroke-dasharray="2 2"/>
<line x1="301.5" y1="399.809" x2="301.5" y2="0.572266" stroke="#101010" stroke-dasharray="2 2"/>
<line x1="401.5" y1="400" x2="401.5" y2="0.763306" stroke="#101010" stroke-dasharray="2 2"/>
<circle cx="260" cy="87" r="20" fill="url(#paint0_linear_203_7)"/>
<path d="M44 145L83.5 300H200M44 145L200 300M44 145L143 178.5M200 300H317L356.5 145M200 300L279.5 221.262M200 300V64M356.5 145L279.5 221.262M356.5 145L257.883 178.5M121 219.5L143 178.5M200 64L257.883 178.5M200 64L143 178.5M279.5 221.262L257.883 178.5" stroke="white" stroke-width="5"/>
<defs>
<linearGradient id="paint0_linear_203_7" x1="260" y1="67" x2="260" y2="107" gradientUnits="userSpaceOnUse">
<stop stop-color="#FFC310"/>
<stop offset="1" stop-color="#E41111"/>
</linearGradient>
</defs>
</svg>
