<svg width="108" height="109" viewBox="0 0 108 109" fill="none" xmlns="http://www.w3.org/2000/svg">
<rect width="108" height="109" fill="#FFC310"/>
<path d="M22 41.9466L27.3489 77.6473H54.0311M22 41.9466L37.6249 59.3616M22 41.9466L41.3885 52.9553M54.0311 77.6473H80.7133L86 41.9466M54.0311 77.6473V31.4354M54.0311 77.6473L70.4054 59.3616M54.0311 77.6473L37.6249 59.3616M86 41.9466L70.4054 59.3616M86 41.9466L66.6492 52.9553M54.0311 31.4354L66.6492 52.9553M54.0311 31.4354L41.3885 52.9553M70.4054 59.3616L66.6492 52.9553M37.6249 59.3616L41.3885 52.9553" stroke="#101010" stroke-width="2"/>
<circle cx="74.3071" cy="35.9757" r="4.9757" fill="#E41111"/>
</svg>
